<svg width="137" height="32" viewBox="0 0 137 32" fill="none" xmlns="http://www.w3.org/2000/svg">
<path d="M126.616 15.7097L118.544 29.5628H112.183L119.913 15.7097L112.183 2.37452H118.538L126.616 15.7097ZM20.3945 22.5958C20.2486 23.7304 19.858 24.8195 19.25 25.7878C18.6419 26.7561 17.8309 27.5804 16.8731 28.2036C15.2076 29.333 13.2788 30.0116 11.274 30.1736L11.0588 31.6167H8.84663L9.05887 30.2185C7.36336 30.1293 5.71215 29.6443 4.23703 28.8024C2.60099 27.842 1.30591 26.3931 0.533203 24.6587L4.56287 21.3444C5.08468 22.4642 5.90108 23.4205 6.92446 24.1108C7.79368 24.6789 8.79443 25.013 9.83013 25.0808L10.8375 18.4701L10.1291 18.1019C9.16771 17.6187 8.23362 17.083 7.33102 16.4971C4.78408 14.7965 3.71588 12.5261 4.12642 9.68581C4.26673 8.63116 4.61907 7.61594 5.16216 6.7015C5.70525 5.78707 6.42781 4.9924 7.28618 4.36552C8.93332 3.14397 10.9302 2.48829 13.2978 2.3835L13.531 0.850586H15.6235L15.3844 2.45536C18.0421 2.70875 20.4936 3.9993 22.2091 6.04813L18.6876 9.82952C17.4381 8.51816 16.0869 7.73374 14.637 7.46728L13.7163 13.7936C14.9899 14.4128 16.2266 15.1056 17.4201 15.8684C19.8156 17.5051 20.8071 19.7426 20.3945 22.5809V22.5958ZM11.7254 12.7397L12.5206 7.43734C11.9551 7.53189 11.4179 7.75182 10.9481 8.08104C10.6321 8.29724 10.3652 8.57779 10.1648 8.90436C9.96442 9.23093 9.8351 9.59618 9.78529 9.97623C9.67767 11.0002 10.3294 11.9163 11.7224 12.7247L11.7254 12.7397ZM12.8494 19.5689L12.0692 24.8234C12.4221 24.6984 12.7561 24.5251 13.0616 24.3084C13.4192 24.0731 13.7234 23.7653 13.9546 23.4048C14.1859 23.0443 14.3389 22.6391 14.4039 22.2156C14.5354 21.2156 14.0152 20.3294 12.8464 19.554L12.8494 19.5689ZM40.6893 12.1768C42.3355 14.049 42.9333 16.544 42.483 19.6617C42.3797 20.3411 42.2218 21.0109 42.0106 21.6647H27.1057C27.2053 23 27.6657 24.0439 28.4868 24.7964C29.3078 25.5489 30.5036 25.9142 32.074 25.8922C33.2476 25.8695 34.4109 25.6676 35.5237 25.2934C36.6745 24.9422 37.7733 24.4387 38.7911 23.7964L40.5339 27.512C37.9112 29.2957 34.8076 30.2357 31.6375 30.2065C28.128 30.2065 25.5861 29.1616 24.0117 27.0718C22.4373 24.982 21.8563 22.4561 22.2689 19.4941C22.6675 16.5001 23.9379 14.071 26.0803 12.2067C28.2227 10.3425 30.8135 9.40737 33.8527 9.40139C36.7882 9.3954 39.0661 10.3155 40.6864 12.1618L40.6893 12.1768ZM37.7867 17.8234C37.7867 16.536 37.411 15.5281 36.6597 14.7995C35.9083 14.071 34.9039 13.6947 33.6464 13.6708C32.3671 13.6586 31.115 14.0401 30.0592 14.7636C28.9896 15.5291 28.1692 16.5934 27.7005 17.8234H37.7867ZM58.2997 9.37145C56.9631 9.35863 55.6428 9.66662 54.4494 10.2696C53.3304 10.8184 52.3688 11.6425 51.6543 12.6648L52.0549 9.89839H47.0388L44.0972 29.7544H49.218L50.6708 19.7695C50.9458 18.025 51.5756 16.6448 52.5601 15.6289C53.0284 15.1388 53.592 14.7501 54.2162 14.487C54.8405 14.2238 55.512 14.0918 56.1892 14.0989C57.4467 14.0989 58.3794 14.5241 58.9872 15.3744C59.5951 16.2247 59.7764 17.4023 59.5313 18.9073L57.932 29.7664H63.0408L64.7477 18.1079C65.1922 15.2576 64.7727 13.081 63.4892 11.578C62.2058 10.075 60.4749 9.33452 58.2967 9.35648L58.2997 9.37145ZM86.1337 2.0841H91.2544L87.1112 29.7604H82.1369L82.4358 27.6467C80.5226 29.3712 78.3683 30.2335 75.9728 30.2335C73.0432 30.2335 70.7793 29.1646 69.181 27.0269C67.5827 24.8892 67.0137 22.3264 67.474 19.3384C67.9105 16.3444 69.1571 13.9492 71.2137 12.1529C73.195 10.3374 75.7928 9.34697 78.4779 9.38342C81.0906 9.38342 83.1363 10.3435 84.6151 12.2636L86.1337 2.0841ZM82.5703 15.8055C81.7253 14.6638 80.4788 14.0929 78.8307 14.0929C77.351 14.0675 75.9192 14.6181 74.8369 15.6289C73.7229 16.5959 72.9825 17.9233 72.7443 19.3803C72.5863 20.1284 72.5788 20.9004 72.722 21.6514C72.8652 22.4025 73.1563 23.1174 73.5783 23.7545C74.4253 24.9661 75.6838 25.5729 77.3539 25.5749C78.1285 25.5936 78.8988 25.4546 79.6182 25.1664C80.3375 24.8783 80.991 24.4468 81.539 23.8982C82.6911 22.8311 83.4194 21.3829 83.5897 19.8204C83.7033 19.117 83.6715 18.3976 83.4962 17.707C83.3208 17.0164 83.0057 16.3692 82.5703 15.8055Z" fill="white"/>
<path d="M136.31 15.7097L128.239 29.5628H121.878L129.611 15.7097L121.878 2.37451H128.236L136.31 15.7097ZM103.726 2.41044C100.217 2.41044 96.9135 3.77869 93.8165 6.51518L96.465 10.5391C98.9044 8.48322 101.097 7.45429 103.042 7.4523C103.495 7.42682 103.949 7.49324 104.377 7.64757C104.804 7.8019 105.196 8.04097 105.529 8.35049C105.831 8.64156 106.056 9.00337 106.183 9.40325C106.31 9.80313 106.336 10.2285 106.258 10.6409C106.184 11.3226 105.932 11.9728 105.529 12.5271C105.28 12.9471 104.986 13.3377 104.65 13.6917L103.592 14.8175L102.994 15.3624L101.798 16.4522L92.0378 25.2575L91.416 29.7245H109.188L109.956 24.7844H99.9028L105.49 19.8204C109.276 16.5031 111.369 13.5371 111.768 10.9223C112.194 8.47125 111.615 6.44732 110.031 4.85053C108.498 3.2238 106.402 2.41044 103.741 2.41044H103.726Z" fill="url(#paint0_linear_1597_10330)"/>
<defs>
<linearGradient id="paint0_linear_1597_10330" x1="113.866" y1="-9.25709" x2="113.866" y2="70.745" gradientUnits="userSpaceOnUse">
<stop offset="0.01" stop-color="#F8B133"/>
<stop offset="0.12" stop-color="#F7AC36"/>
<stop offset="0.27" stop-color="#F59E40"/>
<stop offset="0.42" stop-color="#F18650"/>
<stop offset="0.58" stop-color="#EC6566"/>
<stop offset="0.74" stop-color="#E63B82"/>
<stop offset="0.82" stop-color="#E22491"/>
</linearGradient>
</defs>
</svg>
